STARTFONT 2.1
FONT -sun-Chelmsford Sans Serif-Normal-R-Normal-SansSerif-17-100-120-120-P-83-WinRoman-0
SIZE 10 120 120
FONTBOUNDINGBOX 17 20 0 -4
COMMENT "Generated by fontforge, http://fontforge.sourceforge.net"
COMMENT "(c)Copyright Sun Microsystems Inc"
STARTPROPERTIES 34
FOUNDRY "sun"
FAMILY_NAME "Chelmsford Sans Serif"
WEIGHT_NAME "Normal"
SLANT "R"
SETWIDTH_NAME "Normal"
ADD_STYLE_NAME "SansSerif"
PIXEL_SIZE 17
POINT_SIZE 100
RESOLUTION_X 120
RESOLUTION_Y 120
SPACING "P"
AVERAGE_WIDTH 83
CHARSET_REGISTRY "WinRoman"
CHARSET_ENCODING "0"
FONTNAME_REGISTRY ""
CHARSET_COLLECTIONS "WinRoman"
FONT_NAME "ChelmsfordSansSerif"
FACE_NAME "Chelmsford Sans Serif"
COPYRIGHT "(c)Copyright Sun Microsystems Inc"
FONT_VERSION "001.000"
FONT_ASCENT 14
FONT_DESCENT 3
UNDERLINE_POSITION -2
UNDERLINE_THICKNESS 1
X_HEIGHT 7
CAP_HEIGHT 11
RAW_ASCENT 800
RAW_DESCENT 200
NORM_SPACE 4
RELATIVE_WEIGHT 40
RELATIVE_SETWIDTH 50
FIGURE_WIDTH 9
AVG_LOWERCASE_WIDTH 81
AVG_UPPERCASE_WIDTH 106
ENDPROPERTIES
CHARS 224
STARTCHAR space
ENCODING 32
SWIDTH 275 0
DWIDTH 4 0
BBX 1 1 3 -4
BITMAP
00
ENDCHAR
STARTCHAR exclam
ENCODING 33
SWIDTH 275 0
DWIDTH 5 0
BBX 2 12 2 0
BITMAP
C0
C0
C0
C0
C0
C0
C0
C0
C0
00
C0
C0
ENDCHAR
STARTCHAR quotedbl
ENCODING 34
SWIDTH 350 0
DWIDTH 6 0
BBX 5 4 1 8
BITMAP
D8
D8
D8
D8
ENDCHAR
STARTCHAR numbersign
ENCODING 35
SWIDTH 550 0
DWIDTH 9 0
BBX 9 12 0 0
BITMAP
1980
1980
1980
3300
7F80
3300
3300
FF80
3300
6600
6600
6600
ENDCHAR
STARTCHAR dollar
ENCODING 36
SWIDTH 550 0
DWIDTH 9 0
BBX 8 16 0 -2
BITMAP
08
08
3C
6F
CB
C8
68
3C
16
13
D3
D3
76
3C
10
10
ENDCHAR
STARTCHAR percent
ENCODING 37
SWIDTH 875 0
DWIDTH 15 0
BBX 12 12 1 0
BITMAP
7080
D880
8900
8900
DA00
7200
04E0
05B0
0910
0910
11B0
10E0
ENDCHAR
STARTCHAR ampersand
ENCODING 38
SWIDTH 675 0
DWIDTH 11 0
BBX 10 13 0 0
BITMAP
3C00
6600
6600
6600
3400
3800
3D80
6D80
CD80
C700
C300
6780
3CC0
ENDCHAR
STARTCHAR quotesingle
ENCODING 39
SWIDTH 225 0
DWIDTH 4 0
BBX 2 4 1 8
BITMAP
C0
C0
C0
C0
ENDCHAR
STARTCHAR parenleft
ENCODING 40
SWIDTH 325 0
DWIDTH 6 0
BBX 4 15 1 -3
BITMAP
30
20
60
40
C0
C0
C0
C0
C0
C0
C0
40
60
20
30
ENDCHAR
STARTCHAR parenright
ENCODING 41
SWIDTH 325 0
DWIDTH 6 0
BBX 4 15 1 -3
BITMAP
C0
40
60
20
30
30
30
30
30
30
30
20
60
40
C0
ENDCHAR
STARTCHAR asterisk
ENCODING 42
SWIDTH 375 0
DWIDTH 6 0
BBX 5 6 0 6
BITMAP
20
20
F8
70
50
88
ENDCHAR
STARTCHAR plus
ENCODING 43
SWIDTH 575 0
DWIDTH 10 0
BBX 7 8 1 2
BITMAP
10
10
10
FE
10
10
10
10
ENDCHAR
STARTCHAR comma
ENCODING 44
SWIDTH 275 0
DWIDTH 4 0
BBX 2 4 1 -2
BITMAP
C0
C0
40
80
ENDCHAR
STARTCHAR hyphen
ENCODING 45
SWIDTH 325 0
DWIDTH 6 0
BBX 4 1 1 6
BITMAP
F0
ENDCHAR
STARTCHAR period
ENCODING 46
SWIDTH 275 0
DWIDTH 4 0
BBX 2 2 1 0
BITMAP
C0
C0
ENDCHAR
STARTCHAR slash
ENCODING 47
SWIDTH 275 0
DWIDTH 5 0
BBX 5 14 0 -2
BITMAP
08
08
18
10
10
30
20
20
60
40
40
C0
80
80
ENDCHAR
STARTCHAR zero
ENCODING 48
SWIDTH 550 0
DWIDTH 9 0
BBX 8 12 0 0
BITMAP
3C
66
C3
C3
C3
C3
C3
C3
C3
C3
66
3C
ENDCHAR
STARTCHAR one
ENCODING 49
SWIDTH 550 0
DWIDTH 9 0
BBX 5 12 2 0
BITMAP
18
38
F8
18
18
18
18
18
18
18
18
18
ENDCHAR
STARTCHAR two
ENCODING 50
SWIDTH 550 0
DWIDTH 9 0
BBX 8 12 0 0
BITMAP
3E
67
C3
C3
03
06
0C
18
30
60
C0
FF
ENDCHAR
STARTCHAR three
ENCODING 51
SWIDTH 550 0
DWIDTH 9 0
BBX 8 12 0 0
BITMAP
3C
66
C3
C3
06
1C
06
03
C3
E3
66
3C
ENDCHAR
STARTCHAR four
ENCODING 52
SWIDTH 550 0
DWIDTH 9 0
BBX 8 12 0 0
BITMAP
06
0E
1E
16
36
26
66
C6
FF
06
06
06
ENDCHAR
STARTCHAR five
ENCODING 53
SWIDTH 550 0
DWIDTH 9 0
BBX 8 12 0 0
BITMAP
7F
60
60
C0
FC
C6
03
01
01
C3
C6
7C
ENDCHAR
STARTCHAR six
ENCODING 54
SWIDTH 550 0
DWIDTH 9 0
BBX 8 12 0 0
BITMAP
3E
63
41
C0
DC
E6
C3
C3
C3
C3
66
3C
ENDCHAR
STARTCHAR seven
ENCODING 55
SWIDTH 550 0
DWIDTH 9 0
BBX 8 12 0 0
BITMAP
FF
03
06
06
0C
0C
18
18
18
30
30
30
ENDCHAR
STARTCHAR eight
ENCODING 56
SWIDTH 550 0
DWIDTH 9 0
BBX 8 12 0 0
BITMAP
3C
66
C3
C3
66
3C
66
C3
C3
C3
42
3C
ENDCHAR
STARTCHAR nine
ENCODING 57
SWIDTH 550 0
DWIDTH 9 0
BBX 8 12 0 0
BITMAP
3C
66
C3
C3
C3
C3
67
3B
03
83
C6
7C
ENDCHAR
STARTCHAR colon
ENCODING 58
SWIDTH 275 0
DWIDTH 5 0
BBX 2 10 1 0
BITMAP
C0
C0
00
00
00
00
00
00
C0
C0
ENDCHAR
STARTCHAR semicolon
ENCODING 59
SWIDTH 275 0
DWIDTH 5 0
BBX 2 12 1 -2
BITMAP
C0
C0
00
00
00
00
00
00
C0
C0
40
80
ENDCHAR
STARTCHAR less
ENCODING 60
SWIDTH 575 0
DWIDTH 10 0
BBX 8 8 1 2
BITMAP
03
0C
30
C0
C0
30
0C
03
ENDCHAR
STARTCHAR equal
ENCODING 61
SWIDTH 575 0
DWIDTH 10 0
BBX 7 4 1 4
BITMAP
FE
00
00
FE
ENDCHAR
STARTCHAR greater
ENCODING 62
SWIDTH 575 0
DWIDTH 10 0
BBX 8 8 1 2
BITMAP
C0
30
0C
03
03
0C
30
C0
ENDCHAR
STARTCHAR question
ENCODING 63
SWIDTH 550 0
DWIDTH 9 0
BBX 7 12 1 0
BITMAP
7C
C6
C6
06
0C
18
18
18
00
00
18
18
ENDCHAR
STARTCHAR at
ENCODING 64
SWIDTH 1000 0
DWIDTH 17 0
BBX 15 14 1 -2
BITMAP
07E0
1818
2004
43B4
4EE2
8C62
9862
98C2
98C4
9CCC
4F70
4000
3018
0FE0
ENDCHAR
STARTCHAR A
ENCODING 65
SWIDTH 675 0
DWIDTH 11 0
BBX 11 12 0 0
BITMAP
0E00
0E00
1B00
1B00
1B00
3180
3180
7FC0
60C0
60C0
C060
C060
ENDCHAR
STARTCHAR B
ENCODING 66
SWIDTH 675 0
DWIDTH 12 0
BBX 10 12 1 0
BITMAP
FE00
C300
C180
C180
C300
FF00
C180
C0C0
C0C0
C0C0
C180
FF00
ENDCHAR
STARTCHAR C
ENCODING 67
SWIDTH 725 0
DWIDTH 12 0
BBX 10 12 1 0
BITMAP
1F00
71C0
60C0
C040
C000
C000
C000
C000
C040
60C0
71C0
1F00
ENDCHAR
STARTCHAR D
ENCODING 68
SWIDTH 725 0
DWIDTH 13 0
BBX 11 12 1 0
BITMAP
FF00
C1C0
C0C0
C060
C060
C060
C060
C060
C060
C0C0
C1C0
FF00
ENDCHAR
STARTCHAR E
ENCODING 69
SWIDTH 675 0
DWIDTH 11 0
BBX 9 12 1 0
BITMAP
FF80
C000
C000
C000
C000
FF00
C000
C000
C000
C000
C000
FF80
ENDCHAR
STARTCHAR F
ENCODING 70
SWIDTH 675 0
DWIDTH 10 0
BBX 8 12 1 0
BITMAP
FF
C0
C0
C0
C0
FE
C0
C0
C0
C0
C0
C0
ENDCHAR
STARTCHAR G
ENCODING 71
SWIDTH 725 0
DWIDTH 13 0
BBX 11 12 1 0
BITMAP
1F00
71C0
60C0
C040
C000
C000
C3E0
C020
C060
6060
71E0
1F20
ENDCHAR
STARTCHAR H
ENCODING 72
SWIDTH 725 0
DWIDTH 13 0
BBX 11 12 1 0
BITMAP
C060
C060
C060
C060
C060
FFE0
C060
C060
C060
C060
C060
C060
ENDCHAR
STARTCHAR I
ENCODING 73
SWIDTH 250 0
DWIDTH 4 0
BBX 2 12 1 0
BITMAP
C0
C0
C0
C0
C0
C0
C0
C0
C0
C0
C0
C0
ENDCHAR
STARTCHAR J
ENCODING 74
SWIDTH 500 0
DWIDTH 9 0
BBX 7 12 1 0
BITMAP
06
06
06
06
06
06
06
06
C6
C6
6C
38
ENDCHAR
STARTCHAR K
ENCODING 75
SWIDTH 650 0
DWIDTH 11 0
BBX 9 12 1 0
BITMAP
C180
C300
C600
CC00
D800
F800
CC00
C600
C600
C300
C180
C180
ENDCHAR
STARTCHAR L
ENCODING 76
SWIDTH 550 0
DWIDTH 10 0
BBX 8 12 1 0
BITMAP
C0
C0
C0
C0
C0
C0
C0
C0
C0
C0
C0
FF
ENDCHAR
STARTCHAR M
ENCODING 77
SWIDTH 825 0
DWIDTH 14 0
BBX 12 12 1 0
BITMAP
C030
C030
E070
E070
F0F0
F0F0
D9B0
D9B0
CF30
CF30
C630
C630
ENDCHAR
STARTCHAR N
ENCODING 78
SWIDTH 725 0
DWIDTH 12 0
BBX 10 12 1 0
BITMAP
C0C0
E0C0
E0C0
F0C0
D8C0
DCC0
CEC0
C6C0
C3C0
C1C0
C1C0
C0C0
ENDCHAR
STARTCHAR O
ENCODING 79
SWIDTH 725 0
DWIDTH 13 0
BBX 11 12 1 0
BITMAP
1F00
71C0
60C0
C060
C060
C060
C060
C060
C060
60C0
71C0
1F00
ENDCHAR
STARTCHAR P
ENCODING 80
SWIDTH 675 0
DWIDTH 11 0
BBX 9 12 1 0
BITMAP
FE00
C300
C180
C180
C180
C180
C300
FE00
C000
C000
C000
C000
ENDCHAR
STARTCHAR Q
ENCODING 81
SWIDTH 725 0
DWIDTH 13 0
BBX 11 13 1 -1
BITMAP
1F00
71C0
60C0
C060
C060
C060
C060
C060
C660
63C0
71C0
1F60
0020
ENDCHAR
STARTCHAR R
ENCODING 82
SWIDTH 725 0
DWIDTH 12 0
BBX 10 12 1 0
BITMAP
FF00
C180
C0C0
C0C0
C0C0
C180
FF00
C180
C180
C0C0
C0C0
C0C0
ENDCHAR
STARTCHAR S
ENCODING 83
SWIDTH 675 0
DWIDTH 11 0
BBX 9 12 1 0
BITMAP
3E00
6380
C180
C000
7000
3E00
0700
0180
0180
C180
E300
3E00
ENDCHAR
STARTCHAR T
ENCODING 84
SWIDTH 600 0
DWIDTH 10 0
BBX 10 12 0 0
BITMAP
FFC0
0C00
0C00
0C00
0C00
0C00
0C00
0C00
0C00
0C00
0C00
0C00
ENDCHAR
STARTCHAR U
ENCODING 85
SWIDTH 725 0
DWIDTH 12 0
BBX 10 12 1 0
BITMAP
C0C0
C0C0
C0C0
C0C0
C0C0
C0C0
C0C0
C0C0
C0C0
C0C0
6180
3F00
ENDCHAR
STARTCHAR V
ENCODING 86
SWIDTH 675 0
DWIDTH 11 0
BBX 11 12 0 0
BITMAP
C060
C060
60C0
60C0
60C0
3180
3180
1B00
1B00
1B00
0E00
0E00
ENDCHAR
STARTCHAR W
ENCODING 87
SWIDTH 950 0
DWIDTH 16 0
BBX 16 12 0 0
BITMAP
C183
C183
C3C3
63C6
6666
6666
366C
366C
3C3C
1C38
1818
1818
ENDCHAR
STARTCHAR X
ENCODING 88
SWIDTH 675 0
DWIDTH 11 0
BBX 11 12 0 0
BITMAP
C060
60C0
3180
3180
1B00
0E00
0E00
1B00
3180
3180
60C0
C060
ENDCHAR
STARTCHAR Y
ENCODING 89
SWIDTH 650 0
DWIDTH 10 0
BBX 10 12 0 0
BITMAP
C0C0
C0C0
6180
3300
3300
1E00
0C00
0C00
0C00
0C00
0C00
0C00
ENDCHAR
STARTCHAR Z
ENCODING 90
SWIDTH 600 0
DWIDTH 9 0
BBX 9 12 0 0
BITMAP
FF80
0180
0300
0600
0600
0C00
1800
3000
3000
6000
C000
FF80
ENDCHAR
STARTCHAR bracketleft
ENCODING 91
SWIDTH 275 0
DWIDTH 5 0
BBX 4 15 1 -3
BITMAP
F0
C0
C0
C0
C0
C0
C0
C0
C0
C0
C0
C0
C0
C0
F0
ENDCHAR
STARTCHAR backslash
ENCODING 92
SWIDTH 275 0
DWIDTH 5 0
BBX 5 14 0 -2
BITMAP
80
80
C0
40
40
60
20
20
30
10
10
18
08
08
ENDCHAR
STARTCHAR bracketright
ENCODING 93
SWIDTH 275 0
DWIDTH 5 0
BBX 4 15 0 -3
BITMAP
F0
30
30
30
30
30
30
30
30
30
30
30
30
30
F0
ENDCHAR
STARTCHAR asciicircum
ENCODING 94
SWIDTH 325 0
DWIDTH 7 0
BBX 7 3 0 9
BITMAP
38
6C
C6
ENDCHAR
STARTCHAR underscore
ENCODING 95
SWIDTH 550 0
DWIDTH 9 0
BBX 9 1 0 -3
BITMAP
FF80
ENDCHAR
STARTCHAR grave
ENCODING 96
SWIDTH 325 0
DWIDTH 6 0
BBX 4 3 1 11
BITMAP
C0
60
30
ENDCHAR
STARTCHAR a
ENCODING 97
SWIDTH 550 0
DWIDTH 9 0
BBX 8 8 1 0
BITMAP
7C
C6
06
7E
C6
C6
C6
7B
ENDCHAR
STARTCHAR b
ENCODING 98
SWIDTH 550 0
DWIDTH 9 0
BBX 7 12 1 0
BITMAP
C0
C0
C0
C0
DC
E6
C6
C6
C6
C6
E6
DC
ENDCHAR
STARTCHAR c
ENCODING 99
SWIDTH 525 0
DWIDTH 9 0
BBX 7 8 1 0
BITMAP
7C
C6
C6
C0
C0
C6
C6
7C
ENDCHAR
STARTCHAR d
ENCODING 100
SWIDTH 550 0
DWIDTH 9 0
BBX 7 12 1 0
BITMAP
06
06
06
06
7E
C6
C6
C6
C6
C6
C6
7E
ENDCHAR
STARTCHAR e
ENCODING 101
SWIDTH 550 0
DWIDTH 9 0
BBX 7 8 1 0
BITMAP
7C
C6
C6
FE
C0
C2
C6
7C
ENDCHAR
STARTCHAR f
ENCODING 102
SWIDTH 275 0
DWIDTH 5 0
BBX 5 12 0 0
BITMAP
38
60
60
60
F8
60
60
60
60
60
60
60
ENDCHAR
STARTCHAR g
ENCODING 103
SWIDTH 550 0
DWIDTH 9 0
BBX 7 12 1 -4
BITMAP
7E
C6
C6
C6
C6
C6
C6
7E
06
06
C6
7C
ENDCHAR
STARTCHAR h
ENCODING 104
SWIDTH 550 0
DWIDTH 9 0
BBX 7 12 1 0
BITMAP
C0
C0
C0
C0
DC
E6
C6
C6
C6
C6
C6
C6
ENDCHAR
STARTCHAR i
ENCODING 105
SWIDTH 225 0
DWIDTH 4 0
BBX 2 12 1 0
BITMAP
C0
C0
00
00
C0
C0
C0
C0
C0
C0
C0
C0
ENDCHAR
STARTCHAR j
ENCODING 106
SWIDTH 225 0
DWIDTH 4 0
BBX 3 16 0 -4
BITMAP
60
60
00
00
60
60
60
60
60
60
60
60
60
60
60
C0
ENDCHAR
STARTCHAR k
ENCODING 107
SWIDTH 500 0
DWIDTH 8 0
BBX 7 12 1 0
BITMAP
C0
C0
C0
C6
CC
D8
F0
F8
D8
CC
CC
C6
ENDCHAR
STARTCHAR l
ENCODING 108
SWIDTH 225 0
DWIDTH 4 0
BBX 2 12 1 0
BITMAP
C0
C0
C0
C0
C0
C0
C0
C0
C0
C0
C0
C0
ENDCHAR
STARTCHAR m
ENCODING 109
SWIDTH 825 0
DWIDTH 14 0
BBX 12 8 1 0
BITMAP
DEE0
E730
C630
C630
C630
C630
C630
C630
ENDCHAR
STARTCHAR n
ENCODING 110
SWIDTH 550 0
DWIDTH 9 0
BBX 7 8 1 0
BITMAP
DC
E6
C6
C6
C6
C6
C6
C6
ENDCHAR
STARTCHAR o
ENCODING 111
SWIDTH 575 0
DWIDTH 9 0
BBX 7 8 1 0
BITMAP
7C
C6
C6
C6
C6
C6
C6
7C
ENDCHAR
STARTCHAR p
ENCODING 112
SWIDTH 550 0
DWIDTH 9 0
BBX 7 12 1 -4
BITMAP
FC
C6
C6
C6
C6
C6
C6
FC
C0
C0
C0
C0
ENDCHAR
STARTCHAR q
ENCODING 113
SWIDTH 550 0
DWIDTH 9 0
BBX 7 12 1 -4
BITMAP
7E
C6
C6
C6
C6
C6
C6
7E
06
06
06
06
ENDCHAR
STARTCHAR r
ENCODING 114
SWIDTH 325 0
DWIDTH 6 0
BBX 5 8 1 0
BITMAP
D8
E0
C0
C0
C0
C0
C0
C0
ENDCHAR
STARTCHAR s
ENCODING 115
SWIDTH 500 0
DWIDTH 9 0
BBX 7 8 1 0
BITMAP
7C
C6
C0
F8
3E
06
C6
7C
ENDCHAR
STARTCHAR t
ENCODING 116
SWIDTH 275 0
DWIDTH 5 0
BBX 5 11 0 0
BITMAP
60
60
60
F8
60
60
60
60
60
60
38
ENDCHAR
STARTCHAR u
ENCODING 117
SWIDTH 550 0
DWIDTH 9 0
BBX 7 8 1 0
BITMAP
C6
C6
C6
C6
C6
C6
CE
76
ENDCHAR
STARTCHAR v
ENCODING 118
SWIDTH 475 0
DWIDTH 8 0
BBX 8 8 0 0
BITMAP
C3
C3
66
66
24
3C
18
18
ENDCHAR
STARTCHAR w
ENCODING 119
SWIDTH 725 0
DWIDTH 12 0
BBX 12 8 0 0
BITMAP
C630
C630
6660
6F60
6960
39C0
30C0
1080
ENDCHAR
STARTCHAR x
ENCODING 120
SWIDTH 525 0
DWIDTH 8 0
BBX 8 8 0 0
BITMAP
C3
66
3C
18
18
3C
66
C3
ENDCHAR
STARTCHAR y
ENCODING 121
SWIDTH 500 0
DWIDTH 8 0
BBX 8 12 0 -4
BITMAP
C3
C3
66
66
24
3C
18
18
18
30
30
60
ENDCHAR
STARTCHAR z
ENCODING 122
SWIDTH 500 0
DWIDTH 9 0
BBX 7 8 1 0
BITMAP
FE
06
0C
18
30
60
C0
FE
ENDCHAR
STARTCHAR braceleft
ENCODING 123
SWIDTH 325 0
DWIDTH 6 0
BBX 6 17 0 -4
BITMAP
1C
30
30
30
30
30
30
60
C0
60
30
30
30
30
30
30
1C
ENDCHAR
STARTCHAR bar
ENCODING 124
SWIDTH 250 0
DWIDTH 4 0
BBX 2 17 1 -4
BITMAP
C0
C0
C0
C0
C0
C0
C0
C0
C0
C0
C0
C0
C0
C0
C0
C0
C0
ENDCHAR
STARTCHAR braceright
ENCODING 125
SWIDTH 325 0
DWIDTH 6 0
BBX 6 17 0 -4
BITMAP
E0
30
30
30
30
30
30
18
0C
18
30
30
30
30
30
30
E0
ENDCHAR
STARTCHAR asciitilde
ENCODING 126
SWIDTH 325 0
DWIDTH 7 0
BBX 7 2 0 10
BITMAP
76
DC
ENDCHAR
STARTCHAR uni007F
ENCODING 127
SWIDTH 975 0
DWIDTH 5 0
BBX 2 2 1 0
BITMAP
C0
C0
ENDCHAR
STARTCHAR Euro
ENCODING 128
SWIDTH 275 0
DWIDTH 5 0
BBX 2 2 1 0
BITMAP
C0
C0
ENDCHAR
STARTCHAR NameMe.129
ENCODING 129
SWIDTH 275 0
DWIDTH 5 0
BBX 2 2 1 0
BITMAP
C0
C0
ENDCHAR
STARTCHAR quotesinglbase
ENCODING 130
SWIDTH 275 0
DWIDTH 5 0
BBX 2 2 1 0
BITMAP
C0
C0
ENDCHAR
STARTCHAR florin
ENCODING 131
SWIDTH 275 0
DWIDTH 5 0
BBX 2 2 1 0
BITMAP
C0
C0
ENDCHAR
STARTCHAR quotedblbase
ENCODING 132
SWIDTH 275 0
DWIDTH 5 0
BBX 2 2 1 0
BITMAP
C0
C0
ENDCHAR
STARTCHAR ellipsis
ENCODING 133
SWIDTH 275 0
DWIDTH 5 0
BBX 2 2 1 0
BITMAP
C0
C0
ENDCHAR
STARTCHAR dagger
ENCODING 134
SWIDTH 275 0
DWIDTH 5 0
BBX 2 2 1 0
BITMAP
C0
C0
ENDCHAR
STARTCHAR daggerdbl
ENCODING 135
SWIDTH 275 0
DWIDTH 5 0
BBX 2 2 1 0
BITMAP
C0
C0
ENDCHAR
STARTCHAR circumflex
ENCODING 136
SWIDTH 275 0
DWIDTH 5 0
BBX 2 2 1 0
BITMAP
C0
C0
ENDCHAR
STARTCHAR perthousand
ENCODING 137
SWIDTH 275 0
DWIDTH 5 0
BBX 2 2 1 0
BITMAP
C0
C0
ENDCHAR
STARTCHAR Scaron
ENCODING 138
SWIDTH 275 0
DWIDTH 5 0
BBX 2 2 1 0
BITMAP
C0
C0
ENDCHAR
STARTCHAR guilsinglleft
ENCODING 139
SWIDTH 275 0
DWIDTH 5 0
BBX 2 2 1 0
BITMAP
C0
C0
ENDCHAR
STARTCHAR OE
ENCODING 140
SWIDTH 275 0
DWIDTH 5 0
BBX 2 2 1 0
BITMAP
C0
C0
ENDCHAR
STARTCHAR NameMe.141
ENCODING 141
SWIDTH 275 0
DWIDTH 5 0
BBX 2 2 1 0
BITMAP
C0
C0
ENDCHAR
STARTCHAR Zcaron
ENCODING 142
SWIDTH 275 0
DWIDTH 5 0
BBX 2 2 1 0
BITMAP
C0
C0
ENDCHAR
STARTCHAR NameMe.143
ENCODING 143
SWIDTH 275 0
DWIDTH 5 0
BBX 2 2 1 0
BITMAP
C0
C0
ENDCHAR
STARTCHAR NameMe.144
ENCODING 144
SWIDTH 275 0
DWIDTH 5 0
BBX 2 2 1 0
BITMAP
C0
C0
ENDCHAR
STARTCHAR quoteleft
ENCODING 145
SWIDTH 225 0
DWIDTH 5 0
BBX 2 4 2 10
BITMAP
40
80
C0
C0
ENDCHAR
STARTCHAR quoteright
ENCODING 146
SWIDTH 225 0
DWIDTH 5 0
BBX 2 4 1 10
BITMAP
C0
C0
40
80
ENDCHAR
STARTCHAR quotedblleft
ENCODING 147
SWIDTH 275 0
DWIDTH 5 0
BBX 2 2 1 0
BITMAP
C0
C0
ENDCHAR
STARTCHAR quotedblright
ENCODING 148
SWIDTH 275 0
DWIDTH 5 0
BBX 2 2 1 0
BITMAP
C0
C0
ENDCHAR
STARTCHAR bullet
ENCODING 149
SWIDTH 275 0
DWIDTH 5 0
BBX 2 2 1 0
BITMAP
C0
C0
ENDCHAR
STARTCHAR endash
ENCODING 150
SWIDTH 275 0
DWIDTH 5 0
BBX 2 2 1 0
BITMAP
C0
C0
ENDCHAR
STARTCHAR emdash
ENCODING 151
SWIDTH 275 0
DWIDTH 5 0
BBX 2 2 1 0
BITMAP
C0
C0
ENDCHAR
STARTCHAR tilde
ENCODING 152
SWIDTH 275 0
DWIDTH 5 0
BBX 2 2 1 0
BITMAP
C0
C0
ENDCHAR
STARTCHAR trademark
ENCODING 153
SWIDTH 275 0
DWIDTH 5 0
BBX 2 2 1 0
BITMAP
C0
C0
ENDCHAR
STARTCHAR scaron
ENCODING 154
SWIDTH 275 0
DWIDTH 5 0
BBX 2 2 1 0
BITMAP
C0
C0
ENDCHAR
STARTCHAR guilsinglright
ENCODING 155
SWIDTH 275 0
DWIDTH 5 0
BBX 2 2 1 0
BITMAP
C0
C0
ENDCHAR
STARTCHAR oe
ENCODING 156
SWIDTH 275 0
DWIDTH 5 0
BBX 2 2 1 0
BITMAP
C0
C0
ENDCHAR
STARTCHAR NameMe.157
ENCODING 157
SWIDTH 275 0
DWIDTH 5 0
BBX 2 2 1 0
BITMAP
C0
C0
ENDCHAR
STARTCHAR zcaron
ENCODING 158
SWIDTH 275 0
DWIDTH 5 0
BBX 2 2 1 0
BITMAP
C0
C0
ENDCHAR
STARTCHAR Ydieresis
ENCODING 159
SWIDTH 275 0
DWIDTH 5 0
BBX 2 2 1 0
BITMAP
C0
C0
ENDCHAR
STARTCHAR uni00A0
ENCODING 160
SWIDTH 275 0
DWIDTH 4 0
BBX 1 1 3 -4
BITMAP
00
ENDCHAR
STARTCHAR exclamdown
ENCODING 161
SWIDTH 325 0
DWIDTH 6 0
BBX 2 12 2 0
BITMAP
C0
C0
00
00
C0
C0
C0
C0
C0
C0
C0
C0
ENDCHAR
STARTCHAR cent
ENCODING 162
SWIDTH 550 0
DWIDTH 9 0
BBX 8 14 1 -2
BITMAP
04
04
04
04
7E
CB
CB
C8
D0
D3
D3
7E
20
20
ENDCHAR
STARTCHAR sterling
ENCODING 163
SWIDTH 550 0
DWIDTH 9 0
BBX 8 12 0 0
BITMAP
1C
36
63
63
60
60
FE
30
30
30
7D
4E
ENDCHAR
STARTCHAR currency
ENCODING 164
SWIDTH 550 0
DWIDTH 9 0
BBX 9 9 0 3
BITMAP
8080
5D00
2200
4100
4100
4100
2200
5D00
8080
ENDCHAR
STARTCHAR yen
ENCODING 165
SWIDTH 550 0
DWIDTH 9 0
BBX 8 11 0 1
BITMAP
E7
24
24
3C
FF
18
18
FF
18
18
18
ENDCHAR
STARTCHAR brokenbar
ENCODING 166
SWIDTH 250 0
DWIDTH 4 0
BBX 2 16 1 -4
BITMAP
C0
C0
C0
C0
C0
C0
C0
00
C0
C0
C0
C0
C0
C0
C0
C0
ENDCHAR
STARTCHAR section
ENCODING 167
SWIDTH 550 0
DWIDTH 9 0
BBX 7 14 1 -2
BITMAP
78
CC
84
C0
70
DC
86
C2
76
1C
06
42
66
3C
ENDCHAR
STARTCHAR dieresis
ENCODING 168
SWIDTH 325 0
DWIDTH 6 0
BBX 5 2 0 10
BITMAP
D8
D8
ENDCHAR
STARTCHAR copyright
ENCODING 169
SWIDTH 725 0
DWIDTH 12 0
BBX 12 12 0 1
BITMAP
0F00
30C0
4020
4F20
9990
9810
9810
9990
4F20
4020
30C0
0F00
ENDCHAR
STARTCHAR ordfeminine
ENCODING 170
SWIDTH 375 0
DWIDTH 6 0
BBX 5 7 1 6
BITMAP
70
98
78
D8
78
00
F8
ENDCHAR
STARTCHAR guillemotleft
ENCODING 171
SWIDTH 525 0
DWIDTH 9 0
BBX 7 6 1 3
BITMAP
22
66
CC
CC
66
22
ENDCHAR
STARTCHAR logicalnot
ENCODING 172
SWIDTH 575 0
DWIDTH 10 0
BBX 8 4 1 4
BITMAP
FF
01
01
01
ENDCHAR
STARTCHAR uni00AD
ENCODING 173
SWIDTH 325 0
DWIDTH 4 0
BBX 4 1 0 6
BITMAP
F0
ENDCHAR
STARTCHAR registered
ENCODING 174
SWIDTH 725 0
DWIDTH 12 0
BBX 12 12 0 1
BITMAP
0F00
30C0
4020
5E20
9990
9990
9F10
9990
59A0
4020
30C0
0F00
ENDCHAR
STARTCHAR macron
ENCODING 175
SWIDTH 550 0
DWIDTH 9 0
BBX 9 1 0 14
BITMAP
FF80
ENDCHAR
STARTCHAR degree
ENCODING 176
SWIDTH 400 0
DWIDTH 7 0
BBX 5 5 1 7
BITMAP
70
D8
D8
D8
70
ENDCHAR
STARTCHAR plusminus
ENCODING 177
SWIDTH 575 0
DWIDTH 10 0
BBX 7 9 2 1
BITMAP
10
10
10
FE
10
10
10
00
FE
ENDCHAR
STARTCHAR uni00B2
ENCODING 178
SWIDTH 325 0
DWIDTH 6 0
BBX 5 7 1 5
BITMAP
70
88
08
10
60
80
F8
ENDCHAR
STARTCHAR uni00B3
ENCODING 179
SWIDTH 325 0
DWIDTH 6 0
BBX 5 7 1 5
BITMAP
70
88
08
30
08
88
70
ENDCHAR
STARTCHAR acute
ENCODING 180
SWIDTH 325 0
DWIDTH 6 0
BBX 4 3 1 11
BITMAP
30
60
C0
ENDCHAR
STARTCHAR mu
ENCODING 181
SWIDTH 550 0
DWIDTH 9 0
BBX 9 12 0 -2
BITMAP
3180
3180
3180
3180
6300
6300
6300
6300
7700
D980
C000
C000
ENDCHAR
STARTCHAR paragraph
ENCODING 182
SWIDTH 525 0
DWIDTH 9 0
BBX 7 13 1 0
BITMAP
7E
F4
F4
F4
F4
F4
74
14
14
14
14
14
14
ENDCHAR
STARTCHAR periodcentered
ENCODING 183
SWIDTH 275 0
DWIDTH 4 0
BBX 2 2 1 5
BITMAP
C0
C0
ENDCHAR
STARTCHAR cedilla
ENCODING 184
SWIDTH 325 0
DWIDTH 6 0
BBX 4 3 1 -2
BITMAP
60
10
E0
ENDCHAR
STARTCHAR uni00B9
ENCODING 185
SWIDTH 325 0
DWIDTH 6 0
BBX 3 7 1 5
BITMAP
20
E0
20
20
20
20
20
ENDCHAR
STARTCHAR ordmasculine
ENCODING 186
SWIDTH 375 0
DWIDTH 6 0
BBX 5 8 1 4
BITMAP
70
D8
D8
D8
70
00
00
F8
ENDCHAR
STARTCHAR guillemotright
ENCODING 187
SWIDTH 525 0
DWIDTH 9 0
BBX 7 6 1 1
BITMAP
88
CC
66
66
CC
88
ENDCHAR
STARTCHAR onequarter
ENCODING 188
SWIDTH 825 0
DWIDTH 14 0
BBX 13 12 1 0
BITMAP
2080
E080
2180
2100
2300
2210
2630
0450
0C90
09F8
1810
1010
ENDCHAR
STARTCHAR onehalf
ENCODING 189
SWIDTH 825 0
DWIDTH 14 0
BBX 13 12 1 0
BITMAP
2080
E080
2180
2100
2300
2270
2688
0488
0C10
0860
1880
10F8
ENDCHAR
STARTCHAR threequarters
ENCODING 190
SWIDTH 825 0
DWIDTH 14 0
BBX 14 12 0 0
BITMAP
7040
8840
08C0
3080
0980
8908
7318
0228
0648
04FC
0C08
0808
ENDCHAR
STARTCHAR questiondown
ENCODING 191
SWIDTH 550 0
DWIDTH 10 0
BBX 6 12 2 0
BITMAP
30
30
00
30
30
30
60
C0
C0
CC
CC
78
ENDCHAR
STARTCHAR Agrave
ENCODING 192
SWIDTH 675 0
DWIDTH 11 0
BBX 11 16 0 0
BITMAP
1800
0C00
0600
0000
0E00
0E00
1B00
1B00
1B00
3180
3180
7FC0
60C0
60C0
C060
C060
ENDCHAR
STARTCHAR Aacute
ENCODING 193
SWIDTH 675 0
DWIDTH 11 0
BBX 11 16 0 0
BITMAP
0300
0600
0C00
0000
0E00
0E00
1B00
1B00
1B00
3180
3180
7FC0
60C0
60C0
C060
C060
ENDCHAR
STARTCHAR Acircumflex
ENCODING 194
SWIDTH 675 0
DWIDTH 11 0
BBX 11 16 0 0
BITMAP
0E00
1B00
3180
0000
0E00
0E00
1B00
1B00
1B00
3180
3180
7FC0
60C0
60C0
C060
C060
ENDCHAR
STARTCHAR Atilde
ENCODING 195
SWIDTH 675 0
DWIDTH 11 0
BBX 11 15 0 0
BITMAP
1D80
3700
0000
0E00
0E00
1B00
1B00
1B00
3180
3180
7FC0
60C0
60C0
C060
C060
ENDCHAR
STARTCHAR Adieresis
ENCODING 196
SWIDTH 675 0
DWIDTH 11 0
BBX 11 15 0 0
BITMAP
1B00
1B00
0000
0E00
0E00
1B00
1B00
1B00
3180
3180
7FC0
60C0
60C0
C060
C060
ENDCHAR
STARTCHAR Aring
ENCODING 197
SWIDTH 675 0
DWIDTH 11 0
BBX 11 16 0 0
BITMAP
0600
0900
0900
0600
0E00
0E00
1B00
1B00
1B00
3180
3180
7FC0
60C0
60C0
C060
C060
ENDCHAR
STARTCHAR AE
ENCODING 198
SWIDTH 1000 0
DWIDTH 17 0
BBX 17 12 0 0
BITMAP
07FF80
06C000
0CC000
0CC000
18C000
18FF00
10C000
3FC000
30C000
60C000
60C000
C0FF80
ENDCHAR
STARTCHAR Ccedilla
ENCODING 199
SWIDTH 725 0
DWIDTH 12 0
BBX 10 15 0 -3
BITMAP
1F00
71C0
60C0
C040
C000
C000
C000
C000
C040
60C0
71C0
1F00
0C00
0200
1C00
ENDCHAR
STARTCHAR Egrave
ENCODING 200
SWIDTH 675 0
DWIDTH 11 0
BBX 9 16 1 0
BITMAP
3000
1800
0C00
0000
FF80
C000
C000
C000
C000
FF00
C000
C000
C000
C000
C000
FF80
ENDCHAR
STARTCHAR Eacute
ENCODING 201
SWIDTH 675 0
DWIDTH 11 0
BBX 9 16 1 0
BITMAP
0C00
1800
3000
0000
FF80
C000
C000
C000
C000
FF00
C000
C000
C000
C000
C000
FF80
ENDCHAR
STARTCHAR Ecircumflex
ENCODING 202
SWIDTH 675 0
DWIDTH 11 0
BBX 9 16 1 0
BITMAP
1C00
3600
6300
0000
FF80
C000
C000
C000
C000
FF00
C000
C000
C000
C000
C000
FF80
ENDCHAR
STARTCHAR Edieresis
ENCODING 203
SWIDTH 675 0
DWIDTH 11 0
BBX 9 15 1 0
BITMAP
3600
3600
0000
FF80
C000
C000
C000
C000
FF00
C000
C000
C000
C000
C000
FF80
ENDCHAR
STARTCHAR Igrave
ENCODING 204
SWIDTH 250 0
DWIDTH 4 0
BBX 4 15 0 0
BITMAP
C0
60
30
00
60
60
60
60
60
60
60
60
60
60
60
ENDCHAR
STARTCHAR Iacute
ENCODING 205
SWIDTH 250 0
DWIDTH 4 0
BBX 4 15 0 0
BITMAP
30
60
C0
00
60
60
60
60
60
60
60
60
60
60
60
ENDCHAR
STARTCHAR Icircumflex
ENCODING 206
SWIDTH 250 0
DWIDTH 4 0
BBX 4 15 0 0
BITMAP
60
F0
90
00
60
60
60
60
60
60
60
60
60
60
60
ENDCHAR
STARTCHAR Idieresis
ENCODING 207
SWIDTH 250 0
DWIDTH 4 0
BBX 4 15 0 0
BITMAP
90
90
00
60
60
60
60
60
60
60
60
60
60
60
60
ENDCHAR
STARTCHAR Eth
ENCODING 208
SWIDTH 725 0
DWIDTH 12 0
BBX 11 12 0 0
BITMAP
7F00
61C0
60C0
6060
6060
FC60
6060
6060
6060
60C0
61C0
7F00
ENDCHAR
STARTCHAR Ntilde
ENCODING 209
SWIDTH 725 0
DWIDTH 12 0
BBX 10 15 1 0
BITMAP
1D80
3700
0000
C0C0
E0C0
E0C0
F0C0
D8C0
DCC0
CEC0
C6C0
C3C0
C1C0
C1C0
C0C0
ENDCHAR
STARTCHAR Ograve
ENCODING 210
SWIDTH 775 0
DWIDTH 13 0
BBX 11 16 1 0
BITMAP
1800
0C00
0600
0000
1F00
71C0
60C0
C060
C060
C060
C060
C060
C060
60C0
71C0
1F00
ENDCHAR
STARTCHAR Oacute
ENCODING 211
SWIDTH 775 0
DWIDTH 13 0
BBX 11 16 1 0
BITMAP
0300
0600
0C00
0000
1F00
71C0
60C0
C060
C060
C060
C060
C060
C060
60C0
71C0
1F00
ENDCHAR
STARTCHAR Ocircumflex
ENCODING 212
SWIDTH 775 0
DWIDTH 13 0
BBX 11 16 1 0
BITMAP
0E00
1B00
3180
0000
1F00
71C0
60C0
C060
C060
C060
C060
C060
C060
60C0
71C0
1F00
ENDCHAR
STARTCHAR Otilde
ENCODING 213
SWIDTH 775 0
DWIDTH 13 0
BBX 11 15 1 0
BITMAP
1D80
3700
0000
1F00
71C0
60C0
C060
C060
C060
C060
C060
C060
60C0
71C0
1F00
ENDCHAR
STARTCHAR Odieresis
ENCODING 214
SWIDTH 775 0
DWIDTH 13 0
BBX 11 15 1 0
BITMAP
1B00
1B00
0000
1F00
71C0
60C0
C060
C060
C060
C060
C060
C060
60C0
71C0
1F00
ENDCHAR
STARTCHAR multiply
ENCODING 215
SWIDTH 575 0
DWIDTH 10 0
BBX 8 8 1 2
BITMAP
81
42
24
18
18
24
42
81
ENDCHAR
STARTCHAR Oslash
ENCODING 216
SWIDTH 775 0
DWIDTH 13 0
BBX 11 12 1 0
BITMAP
1F20
71C0
60C0
C1E0
C360
C660
CC60
D860
F060
60C0
71C0
9F00
ENDCHAR
STARTCHAR Ugrave
ENCODING 217
SWIDTH 725 0
DWIDTH 12 0
BBX 10 16 1 0
BITMAP
3000
1800
0C00
0000
C0C0
C0C0
C0C0
C0C0
C0C0
C0C0
C0C0
C0C0
C0C0
C0C0
6180
3F00
ENDCHAR
STARTCHAR Uacute
ENCODING 218
SWIDTH 725 0
DWIDTH 12 0
BBX 10 16 1 0
BITMAP
0300
0600
0C00
0000
C0C0
C0C0
C0C0
C0C0
C0C0
C0C0
C0C0
C0C0
C0C0
C0C0
6180
3F00
ENDCHAR
STARTCHAR Ucircumflex
ENCODING 219
SWIDTH 725 0
DWIDTH 12 0
BBX 10 16 1 0
BITMAP
0E00
1B00
3180
0000
C0C0
C0C0
C0C0
C0C0
C0C0
C0C0
C0C0
C0C0
C0C0
C0C0
6180
3F00
ENDCHAR
STARTCHAR Udieresis
ENCODING 220
SWIDTH 725 0
DWIDTH 12 0
BBX 10 15 1 0
BITMAP
3600
3600
0000
C0C0
C0C0
C0C0
C0C0
C0C0
C0C0
C0C0
C0C0
C0C0
C0C0
6180
3F00
ENDCHAR
STARTCHAR Yacute
ENCODING 221
SWIDTH 650 0
DWIDTH 10 0
BBX 10 16 0 0
BITMAP
0600
0C00
1800
0000
C0C0
C0C0
6180
3300
3300
1E00
0C00
0C00
0C00
0C00
0C00
0C00
ENDCHAR
STARTCHAR Thorn
ENCODING 222
SWIDTH 675 0
DWIDTH 11 0
BBX 9 12 1 0
BITMAP
C000
C000
FE00
C300
C180
C180
C180
C300
FE00
C000
C000
C000
ENDCHAR
STARTCHAR germandbls
ENCODING 223
SWIDTH 575 0
DWIDTH 10 0
BBX 8 12 1 0
BITMAP
3C
66
C3
C3
C6
CC
C6
C3
C3
C3
C6
DC
ENDCHAR
STARTCHAR agrave
ENCODING 224
SWIDTH 550 0
DWIDTH 9 0
BBX 8 12 1 0
BITMAP
60
30
18
00
7C
C6
06
7E
C6
C6
C6
7B
ENDCHAR
STARTCHAR aacute
ENCODING 225
SWIDTH 550 0
DWIDTH 9 0
BBX 8 12 1 0
BITMAP
0C
18
30
00
7C
C6
06
7E
C6
C6
C6
7B
ENDCHAR
STARTCHAR acircumflex
ENCODING 226
SWIDTH 550 0
DWIDTH 9 0
BBX 8 12 1 0
BITMAP
38
6C
C6
00
7C
C6
06
7E
C6
C6
C6
7B
ENDCHAR
STARTCHAR atilde
ENCODING 227
SWIDTH 550 0
DWIDTH 9 0
BBX 8 11 1 0
BITMAP
76
DC
00
7C
C6
06
7E
C6
C6
C6
7B
ENDCHAR
STARTCHAR adieresis
ENCODING 228
SWIDTH 550 0
DWIDTH 9 0
BBX 8 11 1 0
BITMAP
6C
6C
00
7C
C6
06
7E
C6
C6
C6
7B
ENDCHAR
STARTCHAR aring
ENCODING 229
SWIDTH 550 0
DWIDTH 9 0
BBX 8 13 1 0
BITMAP
18
24
24
18
00
7C
C6
06
7E
C6
C6
C6
7B
ENDCHAR
STARTCHAR ae
ENCODING 230
SWIDTH 900 0
DWIDTH 14 0
BBX 11 8 1 0
BITMAP
7FC0
C620
0620
7FE0
C600
C620
C660
7BC0
ENDCHAR
STARTCHAR ccedilla
ENCODING 231
SWIDTH 525 0
DWIDTH 9 0
BBX 7 11 1 -3
BITMAP
7C
C6
C6
C0
C0
C6
C6
7C
18
04
38
ENDCHAR
STARTCHAR egrave
ENCODING 232
SWIDTH 550 0
DWIDTH 9 0
BBX 7 12 1 0
BITMAP
60
30
18
00
7C
C6
C6
FE
C0
C2
C6
7C
ENDCHAR
STARTCHAR eacute
ENCODING 233
SWIDTH 550 0
DWIDTH 9 0
BBX 7 12 1 0
BITMAP
0C
18
30
00
7C
C6
C6
FE
C0
C2
C6
7C
ENDCHAR
STARTCHAR ecircumflex
ENCODING 234
SWIDTH 550 0
DWIDTH 9 0
BBX 7 12 1 0
BITMAP
38
6C
C6
00
7C
C6
C6
FE
C0
C2
C6
7C
ENDCHAR
STARTCHAR edieresis
ENCODING 235
SWIDTH 550 0
DWIDTH 9 0
BBX 7 11 1 0
BITMAP
6C
6C
00
7C
C6
C6
FE
C0
C2
C6
7C
ENDCHAR
STARTCHAR igrave
ENCODING 236
SWIDTH 225 0
DWIDTH 4 0
BBX 4 13 0 0
BITMAP
C0
60
30
00
00
60
60
60
60
60
60
60
60
ENDCHAR
STARTCHAR iacute
ENCODING 237
SWIDTH 225 0
DWIDTH 4 0
BBX 4 13 0 0
BITMAP
30
60
C0
00
00
60
60
60
60
60
60
60
60
ENDCHAR
STARTCHAR icircumflex
ENCODING 238
SWIDTH 225 0
DWIDTH 5 0
BBX 5 12 0 0
BITMAP
70
D8
00
00
60
60
60
60
60
60
60
60
ENDCHAR
STARTCHAR idieresis
ENCODING 239
SWIDTH 225 0
DWIDTH 5 0
BBX 5 11 0 0
BITMAP
D8
D8
00
60
60
60
60
60
60
60
60
ENDCHAR
STARTCHAR eth
ENCODING 240
SWIDTH 550 0
DWIDTH 9 0
BBX 7 12 1 0
BITMAP
8C
70
98
0C
7E
C6
C6
C6
C6
C6
C6
7C
ENDCHAR
STARTCHAR ntilde
ENCODING 241
SWIDTH 550 0
DWIDTH 9 0
BBX 7 11 1 0
BITMAP
76
DC
00
DC
E6
C6
C6
C6
C6
C6
C6
ENDCHAR
STARTCHAR ograve
ENCODING 242
SWIDTH 575 0
DWIDTH 9 0
BBX 7 12 1 0
BITMAP
60
30
18
00
7C
C6
C6
C6
C6
C6
C6
7C
ENDCHAR
STARTCHAR oacute
ENCODING 243
SWIDTH 575 0
DWIDTH 9 0
BBX 7 12 1 0
BITMAP
0C
18
30
00
7C
C6
C6
C6
C6
C6
C6
7C
ENDCHAR
STARTCHAR ocircumflex
ENCODING 244
SWIDTH 575 0
DWIDTH 9 0
BBX 7 12 1 0
BITMAP
38
6C
C6
00
7C
C6
C6
C6
C6
C6
C6
7C
ENDCHAR
STARTCHAR otilde
ENCODING 245
SWIDTH 575 0
DWIDTH 9 0
BBX 7 11 1 0
BITMAP
76
DC
00
7C
C6
C6
C6
C6
C6
C6
7C
ENDCHAR
STARTCHAR odieresis
ENCODING 246
SWIDTH 575 0
DWIDTH 9 0
BBX 7 11 1 0
BITMAP
6C
6C
00
7C
C6
C6
C6
C6
C6
C6
7C
ENDCHAR
STARTCHAR divide
ENCODING 247
SWIDTH 575 0
DWIDTH 10 0
BBX 6 7 2 3
BITMAP
30
30
00
FC
00
30
30
ENDCHAR
STARTCHAR oslash
ENCODING 248
SWIDTH 575 0
DWIDTH 9 0
BBX 7 10 1 -1
BITMAP
04
7C
CE
D6
D6
D6
D6
E6
7C
40
ENDCHAR
STARTCHAR ugrave
ENCODING 249
SWIDTH 550 0
DWIDTH 9 0
BBX 7 12 1 0
BITMAP
60
30
18
00
C6
C6
C6
C6
C6
C6
CE
76
ENDCHAR
STARTCHAR uacute
ENCODING 250
SWIDTH 550 0
DWIDTH 9 0
BBX 7 12 1 0
BITMAP
0C
18
30
00
C6
C6
C6
C6
C6
C6
CE
76
ENDCHAR
STARTCHAR ucircumflex
ENCODING 251
SWIDTH 550 0
DWIDTH 9 0
BBX 7 12 1 0
BITMAP
38
6C
C6
00
C6
C6
C6
C6
C6
C6
CE
76
ENDCHAR
STARTCHAR udieresis
ENCODING 252
SWIDTH 550 0
DWIDTH 9 0
BBX 7 11 1 0
BITMAP
6C
6C
00
C6
C6
C6
C6
C6
C6
CE
76
ENDCHAR
STARTCHAR yacute
ENCODING 253
SWIDTH 500 0
DWIDTH 8 0
BBX 8 16 0 -4
BITMAP
06
0C
18
00
C3
C3
66
66
24
3C
18
18
18
30
30
60
ENDCHAR
STARTCHAR thorn
ENCODING 254
SWIDTH 550 0
DWIDTH 9 0
BBX 7 16 1 -4
BITMAP
C0
C0
C0
C0
FC
C6
C6
C6
C6
C6
C6
FC
C0
C0
C0
C0
ENDCHAR
STARTCHAR ydieresis
ENCODING 255
SWIDTH 500 0
DWIDTH 8 0
BBX 8 15 0 -4
BITMAP
36
36
00
C3
C3
66
66
24
3C
18
18
18
30
30
60
ENDCHAR
ENDFONT
